<svg xmlns="http://www.w3.org/2000/svg" viewBox="0 0 100 100" role="img" aria-label="Bobby Pro Builds">
  <rect x="2" y="2" width="96" height="96" rx="19" fill="#fffdf9"/>
  <path d="M10 51 45 22 78 50" fill="none" stroke="#b94b4b" stroke-width="5" stroke-linecap="round" stroke-linejoin="round"/>
  <path d="M23 47V29L45 13l22 17v30H23Z" fill="none" stroke="#47745b" stroke-width="5" stroke-linejoin="round"/>
  <path d="M39 38h13v13H39z" fill="#47745b"/>
  <path d="M12 76c22-7 45-7 68 0-23 8-46 8-68 0Z" fill="#b94b4b"/>
  <path d="M65 60c7-15 17-21 28-20-1 13-8 23-22 29-6 2-10-3-6-9Z" fill="#5f8568"/>
  <path d="M74 55c5-10 11-16 18-20" fill="none" stroke="#47745b" stroke-width="3" stroke-linecap="round"/>
</svg>
