<svg xmlns="http://www.w3.org/2000/svg" viewBox="0 0 430 92" role="img" aria-labelledby="title">
<title>Bobby Pro Builds — Building Homes &amp; Gardens</title>
<g transform="translate(4 4)">
  <path d="M8 47 45 16 80 45" fill="none" stroke="#b94b4b" stroke-width="4" stroke-linecap="round" stroke-linejoin="round"/>
  <path d="M22 43V24L45 7l23 18v27H22Z" fill="none" stroke="#47745b" stroke-width="4" stroke-linejoin="round"/>
  <path d="M39 31h13v13H39z" fill="#47745b"/>
  <path d="M12 67c22-7 46-7 70 0-24 7-48 7-70 0Z" fill="#b94b4b"/>
  <path d="M66 52c8-15 18-21 29-20-1 13-8 23-23 29-6 2-10-3-6-9Z" fill="#5f8568"/>
  <path d="M76 46c4-9 10-15 18-19" fill="none" stroke="#47745b" stroke-width="2.5" stroke-linecap="round"/>
</g>
<text x="108" y="43" font-family="Georgia, 'Times New Roman', serif" font-size="31" font-weight="700">
  <tspan fill="#b94b4b">Bobby Pro </tspan><tspan fill="#315f49">Builds</tspan>
</text>
<text x="110" y="68" font-family="Arial, Helvetica, sans-serif" font-size="10.5" font-weight="700" letter-spacing="3.2" fill="#5f8568">BUILDING HOMES &amp; GARDENS</text>
</svg>